<svg aria-hidden="true" style="width:0;height:0;position:absolute;overflow:hidden" xmlns="http://www.w3.org/2000/svg"><defs><symbol id="icon-logo" viewBox="0 0 22 32"><path fill="none" stroke="#7eb693" style="stroke:var(--color1,#7eb693)" stroke-miterlimit="10" stroke-width="1.143" d="M1.057 24.039h19.932M3.309 27.714h15.429M10.738.857v8M10.78 8.448v15.104M17.1 2.602l-6.32 6.334M19.531 5.038l-8.751 8.77M20.989 8.935 10.78 18.679M21.476 13.32 10.781 24.039M21.475 18.192l-5.834 5.847M.571 18.192l5.834 5.847M4.947 2.602l5.834 6.334M2.516 5.038l8.264 8.77M1.057 8.448 10.78 18.68M.571 12.833 10.78 23.552M11.023 31.347c-5.772 0-10.452-4.83-10.452-10.789v-9.117C.571 5.483 5.251.652 11.023.652c5.773 0 10.452 4.831 10.452 10.789v9.117c.001 5.959-4.679 10.789-10.452 10.789z"/></symbol><symbol id="icon-search" viewBox="0 0 33 32"><path fill="#7eb693" style="fill:var(--color1,#7eb693)" d="M32.452 16c0 8.837-7.163 16-16 16s-16-7.163-16-16 7.163-16 16-16 16 7.163 16 16z"/><path fill="#fafafa" style="fill:var(--color2,#fafafa)" d="m23.125 20.51-2.72-2.72a5.026 5.026 0 0 0 1.007-3.024c0-2.785-2.266-5.052-5.052-5.052s-5.052 2.266-5.052 5.052a5.058 5.058 0 0 0 5.052 5.052 5.028 5.028 0 0 0 3.024-1.007l2.72 2.72a.724.724 0 0 0 .993-.027.72.72 0 0 0 .027-.993zm-10.373-5.744a3.614 3.614 0 0 1 2.227-3.334 3.603 3.603 0 0 1 3.932.783 3.612 3.612 0 0 1-.546 5.552 3.611 3.611 0 0 1-2.005.608 3.612 3.612 0 0 1-3.608-3.608z"/></symbol><symbol id="icon-cart" viewBox="0 0 33 32"><path fill="#274c5b" style="fill:var(--color3,#274c5b)" d="M32.452 16c0 8.837-7.163 16-16 16s-16-7.163-16-16 7.163-16 16-16 16 7.163 16 16z"/><path fill="#fff" style="fill:var(--color4,#fff);stroke:var(--color4,#fff)" stroke="#fff" stroke-linejoin="round" stroke-linecap="round" stroke-width=".857" d="M14.611 22.286a.698.698 0 1 0 0-1.396.698.698 0 0 0 0 1.396zM19.5 22.286a.698.698 0 1 0 0-1.396.698.698 0 0 0 0 1.396z"/><path fill="none" stroke="#fff" style="stroke:var(--color4,#fff)" stroke-linejoin="round" stroke-linecap="round" stroke-width="1.143" d="M9.023 9.714h2.161l1.621 9.185h8.644"/><path fill="none" stroke="#fff" style="stroke:var(--color4,#fff)" stroke-linejoin="round" stroke-linecap="round" stroke-width="1.143" d="m12.516 16.676 8.713.061a.273.273 0 0 0 .265-.217l.972-4.862c.008-.039.007-.08-.003-.118s-.028-.075-.053-.106a.265.265 0 0 0-.209-.099H11.634"/></symbol><symbol id="icon-aerrow" viewBox="0 0 32 32"><path fill="#335b6b" style="fill:var(--color1,#335b6b)" d="M32 16c0 8.837-7.163 16-16 16S0 24.837 0 16 7.163 0 16 0s16 7.163 16 16z"/><path fill="none" stroke="#fff" style="stroke:var(--color2,#fff)" stroke-linejoin="round" stroke-linecap="round" stroke-width="1.684" d="m15.96 10.322 5.717 5.161-5.717 5.161m4.923-5.16H9.29"/></symbol><symbol id="icon-star" viewBox="0 0 141 32"><path d="M14.616 5.21c.518-1.522 2.671-1.522 3.189 0l1.656 4.866a1.683 1.683 0 0 0 1.594 1.142h5.188c1.65 0 2.316 2.128.96 3.068l-4.06 2.816a1.683 1.683 0 0 0-.634 1.927l1.582 4.649c.524 1.538-1.219 2.853-2.554 1.927l-4.366-3.028a1.683 1.683 0 0 0-1.92 0l-4.366 3.028c-1.335.926-3.078-.389-2.554-1.927l1.582-4.649a1.685 1.685 0 0 0-.635-1.927l-4.06-2.816c-1.356-.941-.691-3.068.96-3.068h5.188c.721 0 1.362-.459 1.594-1.142l1.656-4.866zM41.871 5.456c.504-1.552 2.699-1.552 3.204 0l1.494 4.598a1.685 1.685 0 0 0 1.602 1.164h4.835c1.632 0 2.31 2.088.99 3.047l-3.912 2.842a1.685 1.685 0 0 0-.612 1.883l1.494 4.599c.504 1.552-1.272 2.842-2.592 1.883l-3.912-2.842a1.684 1.684 0 0 0-1.98 0l-3.911 2.842c-1.32.959-3.096-.331-2.592-1.883l1.494-4.599a1.684 1.684 0 0 0-.612-1.883l-3.912-2.842c-1.32-.959-.642-3.047.99-3.047h4.835c.73 0 1.376-.47 1.602-1.164l1.494-4.598zM69.14 5.21c.518-1.522 2.671-1.522 3.189 0l1.656 4.866a1.683 1.683 0 0 0 1.594 1.142h5.188c1.65 0 2.316 2.128.96 3.068l-4.06 2.816a1.685 1.685 0 0 0-.635 1.927l1.582 4.649c.523 1.538-1.219 2.853-2.554 1.927l-4.366-3.028a1.68 1.68 0 0 0-1.919 0l-4.366 3.028c-1.335.926-3.078-.389-2.554-1.927l1.582-4.649a1.685 1.685 0 0 0-.635-1.927l-4.06-2.816c-1.356-.941-.691-3.068.96-3.068h5.188c.721 0 1.362-.459 1.594-1.142L69.14 5.21zM96.395 5.456c.504-1.552 2.699-1.552 3.204 0l1.494 4.598a1.685 1.685 0 0 0 1.602 1.164h4.835c1.632 0 2.31 2.088.99 3.047l-3.912 2.842a1.685 1.685 0 0 0-.612 1.883l1.494 4.599c.504 1.552-1.272 2.842-2.592 1.883l-3.911-2.842a1.684 1.684 0 0 0-1.98 0l-3.912 2.842c-1.32.959-3.096-.331-2.592-1.883l1.494-4.599a1.684 1.684 0 0 0-.612-1.883l-3.912-2.842c-1.32-.959-.642-3.047.99-3.047h4.835c.73 0 1.376-.47 1.602-1.164l1.494-4.598zM123.665 5.21c.518-1.522 2.671-1.522 3.189 0l1.657 4.866a1.683 1.683 0 0 0 1.594 1.142h5.188c1.651 0 2.316 2.128.96 3.068l-4.06 2.816a1.685 1.685 0 0 0-.635 1.927l1.582 4.649c.523 1.538-1.219 2.853-2.554 1.927l-4.366-3.028a1.683 1.683 0 0 0-1.92 0l-4.366 3.028c-1.335.926-3.078-.389-2.554-1.927l1.582-4.649a1.686 1.686 0 0 0-.634-1.927l-4.06-2.816c-1.356-.941-.691-3.068.96-3.068h5.188c.721 0 1.362-.459 1.594-1.142l1.656-4.866z"/></symbol></defs></svg>