<svg aria-hidden="true" style="position: absolute; width: 0; height: 0; overflow: hidden;" version="1.1" xmlns="http://www.w3.org/2000/svg" xmlns:xlink="http://www.w3.org/1999/xlink">
<defs>
<symbol id="icon-logo" viewBox="0 0 22 32">
<path fill="none" stroke="#7eb693" style="stroke: var(--color1, #7eb693)" stroke-linejoin="miter" stroke-linecap="butt" stroke-miterlimit="10" stroke-width="1.1429" d="M1.057 24.039h19.932"></path>
<path fill="none" stroke="#7eb693" style="stroke: var(--color1, #7eb693)" stroke-linejoin="miter" stroke-linecap="butt" stroke-miterlimit="10" stroke-width="1.1429" d="M3.309 27.714h15.429"></path>
<path fill="none" stroke="#7eb693" style="stroke: var(--color1, #7eb693)" stroke-linejoin="miter" stroke-linecap="butt" stroke-miterlimit="10" stroke-width="1.1429" d="M10.738 0.857v8"></path>
<path fill="none" stroke="#7eb693" style="stroke: var(--color1, #7eb693)" stroke-linejoin="miter" stroke-linecap="butt" stroke-miterlimit="10" stroke-width="1.1429" d="M10.78 8.448v15.104"></path>
<path fill="none" stroke="#7eb693" style="stroke: var(--color1, #7eb693)" stroke-linejoin="miter" stroke-linecap="butt" stroke-miterlimit="10" stroke-width="1.1429" d="M17.1 2.602l-6.32 6.334"></path>
<path fill="none" stroke="#7eb693" style="stroke: var(--color1, #7eb693)" stroke-linejoin="miter" stroke-linecap="butt" stroke-miterlimit="10" stroke-width="1.1429" d="M19.531 5.038l-8.751 8.77"></path>
<path fill="none" stroke="#7eb693" style="stroke: var(--color1, #7eb693)" stroke-linejoin="miter" stroke-linecap="butt" stroke-miterlimit="10" stroke-width="1.1429" d="M20.989 8.935l-10.209 9.744"></path>
<path fill="none" stroke="#7eb693" style="stroke: var(--color1, #7eb693)" stroke-linejoin="miter" stroke-linecap="butt" stroke-miterlimit="10" stroke-width="1.1429" d="M21.476 13.32l-10.695 10.719"></path>
<path fill="none" stroke="#7eb693" style="stroke: var(--color1, #7eb693)" stroke-linejoin="miter" stroke-linecap="butt" stroke-miterlimit="10" stroke-width="1.1429" d="M21.475 18.192l-5.834 5.847"></path>
<path fill="none" stroke="#7eb693" style="stroke: var(--color1, #7eb693)" stroke-linejoin="miter" stroke-linecap="butt" stroke-miterlimit="10" stroke-width="1.1429" d="M0.571 18.192l5.834 5.847"></path>
<path fill="none" stroke="#7eb693" style="stroke: var(--color1, #7eb693)" stroke-linejoin="miter" stroke-linecap="butt" stroke-miterlimit="10" stroke-width="1.1429" d="M4.947 2.602l5.834 6.334"></path>
<path fill="none" stroke="#7eb693" style="stroke: var(--color1, #7eb693)" stroke-linejoin="miter" stroke-linecap="butt" stroke-miterlimit="10" stroke-width="1.1429" d="M2.516 5.038l8.264 8.77"></path>
<path fill="none" stroke="#7eb693" style="stroke: var(--color1, #7eb693)" stroke-linejoin="miter" stroke-linecap="butt" stroke-miterlimit="10" stroke-width="1.1429" d="M1.057 8.448l9.723 10.232"></path>
<path fill="none" stroke="#7eb693" style="stroke: var(--color1, #7eb693)" stroke-linejoin="miter" stroke-linecap="butt" stroke-miterlimit="10" stroke-width="1.1429" d="M0.571 12.833l10.209 10.719"></path>
<path fill="none" stroke="#7eb693" style="stroke: var(--color1, #7eb693)" stroke-linejoin="miter" stroke-linecap="butt" stroke-miterlimit="10" stroke-width="1.1429" d="M11.023 31.347c-5.772 0-10.452-4.83-10.452-10.789v-9.117c0-5.958 4.68-10.789 10.452-10.789 5.773 0 10.452 4.831 10.452 10.789v9.117c0.001 5.959-4.679 10.789-10.452 10.789z"></path>
</symbol>
<symbol id="icon-search" viewBox="0 0 33 32">
<path fill="#7eb693" style="fill: var(--color1, #7eb693)" d="M32.452 16c0 8.837-7.163 16-16 16s-16-7.163-16-16c0-8.837 7.163-16 16-16s16 7.163 16 16z"></path>
<path fill="#fafafa" style="fill: var(--color2, #fafafa)" d="M23.125 20.51l-2.72-2.72c0.655-0.872 1.008-1.933 1.007-3.024 0-2.785-2.266-5.052-5.052-5.052s-5.052 2.266-5.052 5.052c0 2.785 2.266 5.052 5.052 5.052 1.090 0.001 2.152-0.352 3.024-1.007l2.72 2.72c0.138 0.123 0.317 0.189 0.502 0.184s0.36-0.081 0.491-0.211c0.131-0.131 0.206-0.306 0.211-0.491s-0.061-0.364-0.184-0.502zM12.752 14.766c0-0.714 0.212-1.411 0.608-2.005s0.96-1.056 1.619-1.329 1.385-0.345 2.085-0.205c0.7 0.139 1.343 0.483 1.847 0.988s0.848 1.148 0.988 1.848c0.139 0.7 0.068 1.425-0.205 2.085s-0.736 1.223-1.329 1.619c-0.593 0.396-1.291 0.608-2.005 0.608-0.957-0.001-1.874-0.382-2.55-1.058s-1.057-1.594-1.058-2.55z"></path>
</symbol>
<symbol id="icon-cart" viewBox="0 0 33 32">
<path fill="#274c5b" style="fill: var(--color3, #274c5b)" d="M32.452 16c0 8.837-7.163 16-16 16s-16-7.163-16-16c0-8.837 7.163-16 16-16s16 7.163 16 16z"></path>
<path fill="#fff" style="fill: var(--color4, #fff); stroke: var(--color4, #fff)" stroke="#fff" stroke-linejoin="round" stroke-linecap="round" stroke-miterlimit="4" stroke-width="0.8571" d="M14.611 22.286c0.386 0 0.698-0.313 0.698-0.698s-0.313-0.698-0.698-0.698c-0.386 0-0.698 0.313-0.698 0.698s0.313 0.698 0.698 0.698z"></path>
<path fill="#fff" style="fill: var(--color4, #fff); stroke: var(--color4, #fff)" stroke="#fff" stroke-linejoin="round" stroke-linecap="round" stroke-miterlimit="4" stroke-width="0.8571" d="M19.5 22.286c0.386 0 0.698-0.313 0.698-0.698s-0.313-0.698-0.698-0.698c-0.386 0-0.698 0.313-0.698 0.698s0.313 0.698 0.698 0.698z"></path>
<path fill="none" stroke="#fff" style="stroke: var(--color4, #fff)" stroke-linejoin="round" stroke-linecap="round" stroke-miterlimit="4" stroke-width="1.1429" d="M9.023 9.714h2.161l1.621 9.185h8.644"></path>
<path fill="none" stroke="#fff" style="stroke: var(--color4, #fff)" stroke-linejoin="round" stroke-linecap="round" stroke-miterlimit="4" stroke-width="1.1429" d="M12.516 16.676l8.713 0.061c0.062 0 0.123-0.022 0.171-0.061s0.081-0.095 0.094-0.156l0.972-4.862c0.008-0.039 0.007-0.080-0.003-0.118s-0.028-0.075-0.053-0.106-0.057-0.056-0.093-0.073c-0.036-0.017-0.076-0.026-0.116-0.026h-10.567"></path>
</symbol>
<symbol id="icon-aerrow" viewBox="0 0 32 32">
<path fill="#335b6b" style="fill: var(--color1, #335b6b)" d="M32 16c0 8.837-7.163 16-16 16s-16-7.163-16-16c0-8.837 7.163-16 16-16s16 7.163 16 16z"></path>
<path fill="none" stroke="#fff" style="stroke: var(--color2, #fff)" stroke-linejoin="round" stroke-linecap="round" stroke-miterlimit="4" stroke-width="1.6842" d="M15.96 10.322l5.717 5.161-5.717 5.161M20.883 15.484h-11.593"></path>
</symbol>
<symbol id="icon-star" viewBox="0 0 141 32">
<path d="M14.616 5.21c0.518-1.522 2.671-1.522 3.189 0l1.656 4.866c0.232 0.683 0.873 1.142 1.594 1.142h5.188c1.65 0 2.316 2.128 0.96 3.068l-4.060 2.816c-0.618 0.428-0.877 1.215-0.634 1.927l1.582 4.649c0.524 1.538-1.219 2.853-2.554 1.927l-4.366-3.028c-0.577-0.401-1.342-0.401-1.92 0l-4.366 3.028c-1.335 0.926-3.078-0.389-2.554-1.927l1.582-4.649c0.242-0.712-0.017-1.498-0.635-1.927l-4.060-2.816c-1.356-0.941-0.691-3.068 0.96-3.068h5.188c0.721 0 1.362-0.459 1.594-1.142l1.656-4.866z"></path>
<path d="M41.871 5.456c0.504-1.552 2.699-1.552 3.204 0l1.494 4.598c0.226 0.694 0.872 1.164 1.602 1.164h4.835c1.632 0 2.31 2.088 0.99 3.047l-3.912 2.842c-0.59 0.429-0.837 1.189-0.612 1.883l1.494 4.599c0.504 1.552-1.272 2.842-2.592 1.883l-3.912-2.842c-0.59-0.429-1.39-0.429-1.98 0l-3.911 2.842c-1.32 0.959-3.096-0.331-2.592-1.883l1.494-4.599c0.226-0.694-0.022-1.454-0.612-1.883l-3.912-2.842c-1.32-0.959-0.642-3.047 0.99-3.047h4.835c0.73 0 1.376-0.47 1.602-1.164l1.494-4.598z"></path>
<path d="M69.14 5.21c0.518-1.522 2.671-1.522 3.189 0l1.656 4.866c0.232 0.683 0.873 1.142 1.594 1.142h5.188c1.65 0 2.316 2.128 0.96 3.068l-4.060 2.816c-0.618 0.428-0.877 1.215-0.635 1.927l1.582 4.649c0.523 1.538-1.219 2.853-2.554 1.927l-4.366-3.028c-0.577-0.401-1.342-0.401-1.919 0l-4.366 3.028c-1.335 0.926-3.078-0.389-2.554-1.927l1.582-4.649c0.242-0.712-0.017-1.498-0.635-1.927l-4.060-2.816c-1.356-0.941-0.691-3.068 0.96-3.068h5.188c0.721 0 1.362-0.459 1.594-1.142l1.656-4.866z"></path>
<path d="M96.395 5.456c0.504-1.552 2.699-1.552 3.204 0l1.494 4.598c0.226 0.694 0.872 1.164 1.602 1.164h4.835c1.632 0 2.31 2.088 0.99 3.047l-3.912 2.842c-0.59 0.429-0.837 1.189-0.612 1.883l1.494 4.599c0.504 1.552-1.272 2.842-2.592 1.883l-3.911-2.842c-0.59-0.429-1.39-0.429-1.98 0l-3.912 2.842c-1.32 0.959-3.096-0.331-2.592-1.883l1.494-4.599c0.226-0.694-0.022-1.454-0.612-1.883l-3.912-2.842c-1.32-0.959-0.642-3.047 0.99-3.047h4.835c0.73 0 1.376-0.47 1.602-1.164l1.494-4.598z"></path>
<path d="M123.665 5.21c0.518-1.522 2.671-1.522 3.189 0l1.657 4.866c0.232 0.683 0.873 1.142 1.594 1.142h5.188c1.651 0 2.316 2.128 0.96 3.068l-4.060 2.816c-0.618 0.428-0.877 1.215-0.635 1.927l1.582 4.649c0.523 1.538-1.219 2.853-2.554 1.927l-4.366-3.028c-0.577-0.401-1.342-0.401-1.92 0l-4.366 3.028c-1.335 0.926-3.078-0.389-2.554-1.927l1.582-4.649c0.242-0.712-0.017-1.498-0.634-1.927l-4.060-2.816c-1.356-0.941-0.691-3.068 0.96-3.068h5.188c0.721 0 1.362-0.459 1.594-1.142l1.656-4.866z"></path>
</symbol>
</defs>
</svg>
